PathFileType  4	(X/Y/Z) C:\Users\15086\Documents\GitHub\mocap-processing\NordTesting\KristenNordTest\
DataRate	CameraRate	NumFrames	NumMarkers	Units	OrigDataRate	OrigDataStartFrame	OrigNumFrames
  200.0		  200.0		   6		     52		 mm	  200.0	      2522	   2882
Frame#	Time	C7			R_Shoulder			L_Shoulder			Sternum			R_humerus			R_elbow_med			R_elbow_lat			R_forearm			R_wrist_radius			R_wrist_ulna			L_humerus			L_elbow_med			L_elbow_lat			L_forearm			L_wrist_radius			L_wrist_ulna			r.ASIS			r.PSIS			r_IC			L.ASIS			L.PSIS			l_IC			r_thigh1			r_thigh2			r_thigh3			r_thigh4			r_thigh5			r_knee			r_mknee			r_shank_antsup			r_sh2			r_sh3			r_sh4			r_ankle			r_mankle			r_calc			r_5meta			r_toe			L_thigh1			L_thigh2			L_thigh3			L_thigh4			L_knee			L_mknee			L_shank_antsup			L_sh2			L_sh3			L_ankle			L_mankle			L_calc			L_5meta			L_toe			
		X1	Y1	Z1	X2	Y2	Z2	X3	Y3	Z3	X4	Y4	Z4	X5	Y5	Z5	X6	Y6	Z6	X7	Y7	Z7	X8	Y8	Z8	X9	Y9	Z9	X10	Y10	Z10	X11	Y11	Z11	X12	Y12	Z12	X13	Y13	Z13	X14	Y14	Z14	X15	Y15	Z15	X16	Y16	Z16	X17	Y17	Z17	X18	Y18	Z18	X19	Y19	Z19	X20	Y20	Z20	X21	Y21	Z21	X22	Y22	Z22	X23	Y23	Z23	X24	Y24	Z24	X25	Y25	Z25	X26	Y26	Z26	X27	Y27	Z27	X28	Y28	Z28	X29	Y29	Z29	X30	Y30	Z30	X31	Y31	Z31	X32	Y32	Z32	X33	Y33	Z33	X34	Y34	Z34	X35	Y35	Z35	X36	Y36	Z36	X37	Y37	Z37	X38	Y38	Z38	X39	Y39	Z39	X40	Y40	Z40	X41	Y41	Z41	X42	Y42	Z42	X43	Y43	Z43	X44	Y44	Z44	X45	Y45	Z45	X46	Y46	Z46	X47	Y47	Z47	X48	Y48	Z48	X49	Y49	Z49	X50	Y50	Z50	X51	Y51	Z51	X52	Y52	Z52	

2522	12.60500	1192.336	1005.279	-998.023	1324.879	973.640	-1011.024	1058.039	978.398	-1038.988	1195.633	878.486	-1058.922	1460.028	979.127	-889.479	1548.932	911.039	-776.785	1537.283	990.939	-774.769	1593.288	1014.681	-889.775	1621.380	994.651	-1002.472	1654.301	1025.285	-981.814	880.380	975.842	-930.093	791.072	890.571	-858.284	791.336	967.498	-840.814	777.836	999.485	-987.634	789.791	991.940	-1084.828	737.045	1009.423	-1073.038	1310.603	588.383	-694.986	1249.833	774.654	-659.192	1340.162	692.581	-734.451	1075.963	576.930	-688.336	1135.673	764.685	-656.270	1044.117	666.188	-730.167	1371.791	447.551	-524.740	1375.052	363.140	-447.805	1383.036	367.056	-398.550	1381.929	518.213	-444.708	1368.067	426.985	-369.014	1372.556	306.465	-355.332	1246.128	315.594	-344.533	1393.368	316.940	-226.386	1379.622	327.704	-106.960	1393.047	393.378	-231.785	1379.483	410.538	-117.035	1368.625	381.491	58.510	1290.235	355.133	48.497	1309.832	440.991	80.611	1385.463	291.658	139.848	1351.179	236.098	119.997	1011.990	434.026	-520.865	1014.736	329.176	-428.590	1004.221	515.812	-434.548	1012.497	412.287	-345.664	1002.539	324.869	-330.060	1128.341	303.858	-321.575	983.640	322.608	-214.948	995.803	412.440	-229.100	1006.831	418.815	-106.199	1013.593	397.691	79.142	1080.986	340.956	56.236	1064.632	440.472	80.359	1006.936	292.595	174.817	1042.470	235.028	152.281
2523	12.61000	1192.380	1004.799	-998.405	1324.841	973.221	-1011.365	1058.161	977.578	-1039.042	1195.623	878.070	-1059.136	1459.968	978.761	-889.706	1548.659	910.631	-776.559	1537.122	990.660	-774.970	1593.146	1014.181	-890.014	1621.148	993.943	-1002.648	1654.243	1024.676	-982.139	880.324	975.547	-930.425	791.061	890.297	-858.533	791.305	967.250	-841.132	777.855	999.058	-987.995	789.847	991.290	-1085.160	737.066	1008.879	-1073.403	1310.566	588.191	-695.072	1249.924	774.585	-659.404	1340.179	692.368	-734.567	1075.897	576.698	-688.360	1135.492	764.323	-656.475	1044.053	665.985	-730.255	1371.740	447.457	-524.722	1375.034	363.083	-447.867	1382.999	366.999	-398.544	1382.203	518.300	-444.950	1367.952	426.922	-369.331	1372.519	306.498	-355.302	1246.110	315.550	-344.531	1393.411	316.929	-226.395	1379.667	327.720	-106.965	1393.078	393.378	-231.793	1379.570	410.552	-117.020	1368.716	381.511	58.534	1290.380	355.225	48.515	1309.993	441.040	80.639	1385.757	291.847	139.934	1351.287	236.002	120.035	1012.322	434.021	-520.177	1014.764	329.134	-428.585	1004.182	515.786	-434.643	1012.522	412.287	-345.699	1003.072	324.654	-330.135	1128.391	303.849	-321.593	983.678	322.833	-214.920	996.018	411.571	-228.997	1006.913	419.559	-107.245	1013.702	397.699	79.184	1081.055	340.932	56.277	1064.749	440.478	80.371	1007.054	292.585	174.823	1042.565	235.054	152.275
2524	12.61500	1192.419	1004.026	-998.907	1324.808	972.799	-1011.637	1058.116	977.168	-1039.385	1195.887	877.278	-1059.099	1459.928	978.397	-889.929	1548.660	910.424	-776.963	1537.003	990.381	-775.151	1592.993	1013.711	-890.239	1620.924	993.238	-1002.843	1654.092	1024.073	-982.384	881.125	975.449	-930.851	791.080	890.025	-858.769	791.290	967.092	-841.419	777.885	998.611	-988.360	789.830	990.682	-1085.512	737.109	1008.363	-1073.769	1310.537	588.036	-695.132	1249.879	774.433	-659.598	1340.171	692.179	-734.704	1075.811	576.496	-688.441	1135.730	764.440	-656.460	1043.977	665.799	-730.358	1371.735	447.369	-524.746	1375.013	363.068	-447.873	1383.004	366.986	-398.575	1381.857	518.111	-444.812	1367.995	426.958	-369.051	1372.500	306.491	-355.330	1246.105	315.522	-344.519	1393.422	316.913	-226.377	1379.735	327.722	-106.963	1393.119	393.361	-231.801	1379.656	410.542	-117.027	1368.860	381.473	58.528	1290.463	355.271	48.536	1310.148	441.046	80.647	1385.870	291.817	139.935	1351.418	236.004	120.014	1012.064	433.861	-520.858	1014.800	329.067	-428.592	1003.720	515.940	-435.692	1012.527	412.265	-345.706	1003.408	324.670	-330.139	1128.382	303.809	-321.593	983.737	322.886	-214.845	996.169	411.721	-229.122	1006.061	419.332	-106.156	1013.797	397.714	79.246	1081.177	340.906	56.297	1064.868	440.486	80.367	1007.179	292.604	174.871	1042.720	235.038	152.305
2525	12.62000	1192.318	1003.640	-999.151	1324.839	972.340	-1011.952	1058.181	976.990	-1039.879	1195.554	877.151	-1059.640	1459.842	978.054	-890.173	1548.370	909.985	-776.721	1536.916	990.023	-775.343	1592.885	1013.152	-890.400	1620.027	992.731	-1002.628	1653.921	1023.445	-982.635	880.981	975.147	-930.996	791.063	889.767	-858.995	791.241	966.853	-841.750	777.932	998.105	-988.694	789.804	990.103	-1085.861	737.120	1007.863	-1074.170	1310.536	587.878	-695.213	1249.930	774.094	-659.953	1340.165	691.956	-734.837	1075.808	576.311	-688.488	1135.686	764.410	-656.709	1043.929	665.627	-730.473	1371.703	447.246	-524.864	1375.672	363.469	-447.692	1382.929	366.921	-398.540	1381.856	518.043	-444.887	1367.763	426.983	-369.117	1372.475	306.482	-355.325	1246.083	315.511	-344.526	1393.428	316.916	-226.419	1379.749	327.681	-106.954	1393.168	393.355	-231.824	1379.752	410.535	-117.061	1369.038	381.416	58.518	1290.623	355.288	48.569	1310.319	441.052	80.658	1386.039	291.782	139.909	1351.547	235.994	120.003	1012.412	433.884	-520.248	1014.804	329.017	-428.615	1004.131	515.675	-434.810	1012.592	412.078	-345.658	1003.433	324.646	-330.126	1128.371	303.793	-321.598	983.743	322.831	-214.768	996.223	411.698	-229.114	1007.067	419.612	-107.199	1013.890	397.705	79.260	1081.281	340.894	56.307	1064.908	440.543	80.430	1006.639	292.618	174.947	1042.829	235.058	152.329
2526	12.62500	1191.962	1003.315	-999.084	1324.802	971.973	-1012.225	1058.296	975.954	-1039.802	1195.534	876.731	-1059.923	1459.816	977.637	-890.394	1548.157	909.726	-776.868	1536.784	989.782	-775.523	1592.741	1012.730	-890.631	1620.565	992.094	-1003.189	1653.798	1022.845	-982.899	880.207	974.545	-931.306	790.996	889.547	-859.179	791.158	966.656	-842.094	777.929	997.678	-989.065	789.842	989.577	-1086.202	737.142	1007.251	-1074.544	1310.471	587.696	-695.313	1249.888	773.947	-660.158	1340.134	691.773	-734.984	1075.747	576.076	-688.548	1135.732	764.171	-656.927	1043.852	665.376	-730.584	1371.645	447.160	-524.864	1375.647	363.384	-447.719	1382.955	366.877	-398.604	1381.874	518.005	-445.028	1367.674	426.886	-369.432	1372.458	306.495	-355.355	1246.069	315.498	-344.487	1393.457	316.909	-226.437	1379.841	327.682	-106.998	1393.221	393.366	-231.829	1379.876	410.524	-117.070	1369.207	381.397	58.466	1290.786	355.298	48.567	1310.511	441.054	80.636	1386.173	291.806	139.867	1351.675	235.971	119.980	1012.121	433.690	-520.939	1014.825	328.990	-428.603	1003.676	515.842	-435.888	1012.525	412.179	-345.785	1003.449	324.622	-330.089	1128.405	303.782	-321.626	983.796	322.769	-214.790	996.145	411.596	-228.902	1007.170	419.644	-107.190	1013.990	397.731	79.304	1081.333	340.910	56.345	1065.112	440.484	80.440	1006.762	292.655	174.981	1042.994	235.095	152.357
2527	12.63000	1191.904	1002.926	-999.423	1324.814	971.579	-1012.546	1058.036	975.973	-1040.351	1195.501	876.319	-1060.166	1459.750	977.285	-890.619	1547.922	909.451	-777.056	1536.653	989.511	-775.704	1592.582	1012.370	-890.960	1620.839	991.090	-1003.166	1653.724	1022.282	-983.156	880.167	974.178	-931.625	790.990	889.298	-859.384	791.152	966.359	-842.399	777.925	997.237	-989.434	788.462	989.123	-1087.292	737.129	1006.742	-1074.911	1310.460	587.523	-695.438	1249.850	773.804	-660.358	1340.137	691.548	-735.153	1075.697	575.853	-688.633	1135.694	764.017	-657.089	1043.788	665.138	-730.689	1371.569	447.049	-524.947	1374.935	362.901	-447.852	1382.940	366.836	-398.636	1381.874	517.922	-445.089	1367.889	426.845	-369.511	1372.463	306.456	-355.389	1246.066	315.496	-344.471	1393.476	316.851	-226.466	1379.954	327.678	-107.018	1393.266	393.365	-231.854	1379.964	410.526	-117.116	1369.343	381.334	58.429	1290.923	355.311	48.584	1310.713	441.048	80.640	1386.345	291.715	139.808	1351.792	235.955	119.950	1012.060	433.614	-520.988	1014.822	328.969	-428.584	1003.726	515.789	-435.900	1012.590	412.039	-345.700	1003.128	324.552	-330.042	1128.425	303.756	-321.653	983.833	322.747	-214.725	996.173	411.602	-228.864	1007.228	419.601	-107.133	1014.096	397.792	79.391	1081.646	340.946	56.300	1065.244	440.449	80.460	1006.881	292.691	175.013	1043.094	235.097	152.399
